<svg width="25" height="24" viewBox="0 0 25 24" fill="none" xmlns="http://www.w3.org/2000/svg">
<g id="addhome_24">
<path id="Vector" fill-rule="evenodd" clip-rule="evenodd" d="M12.4056 4.91303C12.1399 4.84594 11.8616 4.84594 11.5958 4.91303C11.3345 4.979 11.068 5.1504 10.1538 5.80058L6.52568 8.38103C5.85262 8.85974 5.66864 9.00114 5.54032 9.16417C5.40999 9.32976 5.3125 9.51873 5.2531 9.72091C5.19461 9.91997 5.18602 10.1518 5.18602 10.9778V16.2141C5.18602 16.9441 5.18672 17.4376 5.21783 17.8183C5.24808 18.1886 5.30253 18.3723 5.3663 18.4975C5.52489 18.8087 5.77793 19.0618 6.08917 19.2204C6.21433 19.2841 6.39809 19.3386 6.76834 19.3688C7.14909 19.3999 7.64251 19.4006 8.37258 19.4006H15.6289C16.3589 19.4006 16.8524 19.3999 17.2331 19.3688C17.6034 19.3386 17.7871 19.2841 17.9123 19.2204C18.2235 19.0618 18.4766 18.8087 18.6351 18.4975C18.6989 18.3723 18.7534 18.1886 18.7836 17.8183C18.8147 17.4376 18.8154 16.9442 18.8154 16.2141V10.9778C18.8154 10.1518 18.8068 9.91997 18.7483 9.72091C18.6889 9.51873 18.5915 9.32976 18.4611 9.16417C18.3328 9.00114 18.1488 8.85974 17.4758 8.38103L13.8476 5.80058C12.9334 5.1504 12.6669 4.979 12.4056 4.91303ZM11.1552 3.16779C11.7102 3.02769 12.2913 3.02769 12.8462 3.16779C13.4783 3.32736 14.0369 3.72539 14.7652 4.24427C14.8065 4.27372 14.8484 4.30355 14.8909 4.33375L18.519 6.91419C18.5497 6.93604 18.5801 6.95757 18.61 6.97884C19.1506 7.36283 19.5665 7.65822 19.8756 8.05092C20.1477 8.3967 20.3513 8.7913 20.4753 9.21349C20.6162 9.69297 20.6159 10.2031 20.6155 10.8662C20.6155 10.9029 20.6154 10.9401 20.6154 10.9778V16.251C20.6154 16.9348 20.6155 17.5021 20.5776 17.9649C20.5383 18.4465 20.4536 18.8935 20.239 19.3147C19.9078 19.9646 19.3794 20.493 18.7295 20.8242C18.3083 21.0388 17.8612 21.1235 17.3797 21.1629C16.9169 21.2007 16.3496 21.2007 15.6657 21.2006H8.3357C7.65185 21.2007 7.08452 21.2007 6.62176 21.1629C6.1402 21.1235 5.69319 21.0388 5.27199 20.8242C4.62206 20.493 4.09365 19.9646 3.76249 19.3147C3.54788 18.8935 3.46315 18.4465 3.4238 17.9649C3.386 17.5021 3.38601 16.9348 3.38602 16.251L3.38602 10.9778C3.38602 10.9401 3.38599 10.9029 3.38597 10.8662C3.38555 10.2031 3.38522 9.69297 3.5261 9.21349C3.65015 8.7913 3.85372 8.3967 4.12587 8.05092C4.43495 7.65822 4.85083 7.36283 5.39145 6.97884C5.42139 6.95757 5.45172 6.93604 5.48243 6.91419L9.11057 4.33375C9.15303 4.30355 9.1949 4.27372 9.23623 4.24427C9.9645 3.72539 10.5232 3.32736 11.1552 3.16779ZM12.0007 8.6554C12.4978 8.6554 12.9007 9.05834 12.9007 9.5554V12.0847H15.4043C15.9013 12.0847 16.3043 12.4877 16.3043 12.9847C16.3043 13.4818 15.9013 13.8847 15.4043 13.8847H12.9007V16.4141C12.9007 16.9111 12.4978 17.3141 12.0007 17.3141C11.5037 17.3141 11.1007 16.9111 11.1007 16.4141V13.8847H8.59718C8.10012 13.8847 7.69718 13.4818 7.69718 12.9847C7.69718 12.4877 8.10012 12.0847 8.59718 12.0847H11.1007V9.5554C11.1007 9.05834 11.5037 8.6554 12.0007 8.6554Z" fill="#007AFF"/>
</g>
</svg>
