<svg width="25" height="24" viewBox="0 0 25 24" fill="none" xmlns="http://www.w3.org/2000/svg">
<g id="channel_24">
<path id="Vector" fill-rule="evenodd" clip-rule="evenodd" d="M19.8349 4.69583C19.4889 4.13177 18.8698 3.83631 18.2507 3.91168C18.1204 3.92755 17.8713 4.01788 17.3582 4.38267C16.859 4.73754 16.2266 5.26343 15.3302 6.01004L14.3171 6.85388V14.2205L15.5182 15.067C16.3922 15.683 17.0049 16.114 17.4873 16.4009C17.9789 16.6932 18.2172 16.7607 18.348 16.7685C18.9473 16.8042 19.5297 16.4965 19.8526 15.9461C19.9278 15.8179 20.0091 15.5651 20.0527 14.981C20.0955 14.407 20.0961 13.641 20.0961 12.5522V8.38075C20.0961 7.19519 20.0955 6.35661 20.0493 5.73194C20.0019 5.09124 19.9128 4.82285 19.8349 4.69583ZM12.5171 13.7873V7.33221H6.82703C6.21937 7.33221 5.80998 7.33273 5.49263 7.355C5.18386 7.37667 5.02977 7.41572 4.92546 7.46016C4.52411 7.63115 4.19743 7.96275 4.02535 8.39006C3.97869 8.50592 3.93978 8.6728 3.91842 8.99483C3.89655 9.32447 3.89609 9.74863 3.89609 10.3726V11.764C3.89609 12.058 3.89694 12.1478 3.90278 12.2154C3.9763 13.0666 4.62593 13.7094 5.40595 13.7807C5.46756 13.7864 5.55075 13.7873 5.8382 13.7873H12.5171ZM13.0914 5.53221L14.2088 4.60152C15.0677 3.88609 15.753 3.31529 16.3153 2.91559C16.8702 2.52108 17.4303 2.19828 18.0332 2.12488C19.3694 1.9622 20.6646 2.60588 21.3692 3.75463C21.6853 4.2699 21.7933 4.9082 21.8444 5.59915C21.8961 6.2983 21.8961 7.20383 21.8961 8.34238V12.5901C21.8961 13.6324 21.8961 14.4658 21.8477 15.1148C21.7995 15.7616 21.6972 16.3591 21.4052 16.8568C20.7489 17.9757 19.5339 18.6423 18.241 18.5653C17.6622 18.5308 17.1148 18.2735 16.5673 17.948C16.0176 17.6211 15.3478 17.1491 14.5134 16.561L13.1319 15.5873H12.8961V18.6204C12.8961 20.4076 11.4811 21.9 9.68262 21.9C9.07494 21.9 8.46656 21.7257 7.9457 21.3721C6.8204 20.6083 5.98751 19.9045 5.50108 18.8149C5.11173 17.9428 4.9801 16.898 4.9473 15.5334C3.40797 15.2566 2.24623 13.9538 2.10945 12.3703C2.09602 12.2147 2.09605 12.0403 2.09609 11.8048C2.09609 11.7914 2.09609 11.7778 2.09609 11.764L2.09609 10.3426C2.09609 9.7561 2.09608 9.272 2.12237 8.87569C2.14961 8.46504 2.20791 8.08454 2.35566 7.71766C2.702 6.85762 3.3697 6.16643 4.21994 5.80419C4.58497 5.64867 4.96305 5.58774 5.36661 5.55941C5.75449 5.53219 6.22735 5.5322 6.79571 5.53221L13.0914 5.53221ZM6.74986 15.5873C6.78548 16.8215 6.90533 17.5449 7.14471 18.0811C7.41691 18.6908 7.89049 19.1591 8.95662 19.8828C9.16448 20.0239 9.4172 20.1 9.68262 20.1C10.4395 20.1 11.0961 19.4617 11.0961 18.6204V15.5873H6.74986Z" fill="#007AFF"/>
</g>
</svg>
