<svg width="25" height="24" viewBox="0 0 25 24" fill="none" xmlns="http://www.w3.org/2000/svg">
<g id="edit_24">
<path id="Vector" fill-rule="evenodd" clip-rule="evenodd" d="M16.2099 2.76493C16.4029 2.74325 16.5977 2.74325 16.7908 2.76493C17.3166 2.82397 17.7396 3.06748 18.119 3.36446C18.4741 3.6424 18.8664 4.02958 19.3178 4.47505L19.3885 4.54483C19.8511 5.00134 20.2526 5.39746 20.5407 5.75653C20.8481 6.13972 21.1011 6.56871 21.1624 7.10483C21.1848 7.30108 21.1848 7.49925 21.1624 7.6955C21.1011 8.23162 20.8481 8.66061 20.5407 9.0438C20.2526 9.40287 19.8511 9.79899 19.3885 10.2555L9.06397 20.444C9.03895 20.4687 9.01414 20.4933 8.98948 20.5177C8.63583 20.8677 8.31505 21.1852 7.90612 21.3769C7.82902 21.4131 7.75019 21.4454 7.66991 21.4739C7.24416 21.6246 6.79283 21.624 6.29527 21.6232C6.26057 21.6232 6.22566 21.6231 6.1905 21.6231H6.08261C5.45378 21.6232 4.90764 21.6232 4.46374 21.5728C3.99006 21.519 3.52202 21.3984 3.10842 21.078C2.93494 20.9436 2.77914 20.7878 2.64475 20.6143C2.32435 20.2007 2.20369 19.7327 2.14993 19.259C2.09954 18.8151 2.09957 18.2689 2.0996 17.6401L2.0996 17.5915C2.0996 17.5571 2.09955 17.5229 2.09951 17.489C2.09881 17.0026 2.09818 16.5617 2.24201 16.1449C2.27807 16.0404 2.32076 15.9383 2.3698 15.8393C2.5654 15.4442 2.8797 15.1349 3.22638 14.7938C3.25057 14.77 3.27492 14.746 3.2994 14.7219L13.6829 4.47504C14.1343 4.02958 14.5266 3.6424 14.8817 3.36446C15.2611 3.06748 15.6841 2.82397 16.2099 2.76493ZM16.5899 4.55369C16.5304 4.547 16.4703 4.547 16.4108 4.55369C16.3504 4.56046 16.2397 4.58737 15.9911 4.78189C15.7275 4.98828 15.4088 5.30077 14.9122 5.79084L14.4065 6.28992L17.6254 9.46647L18.0885 9.00949C18.597 8.50762 18.922 8.18491 19.1367 7.91734C19.3394 7.66469 19.3671 7.55196 19.374 7.49125C19.3809 7.43073 19.3809 7.36961 19.374 7.30908C19.3671 7.24837 19.3394 7.13564 19.1367 6.88299C18.922 6.61542 18.597 6.29271 18.0885 5.79084C17.5919 5.30077 17.2732 4.98828 17.0095 4.78189C16.761 4.58737 16.6502 4.56046 16.5899 4.55369ZM16.3441 10.7309L13.1252 7.55436L4.56373 16.003C4.101 16.4597 4.02709 16.5487 3.98294 16.6379C3.96781 16.6685 3.95465 16.6999 3.94352 16.7322C3.91106 16.8262 3.8996 16.9414 3.8996 17.5915C3.8996 18.283 3.90096 18.7258 3.93844 19.056C3.97384 19.3678 4.0315 19.4652 4.06774 19.512C4.10919 19.5655 4.15724 19.6135 4.21074 19.655C4.25753 19.6912 4.3549 19.7489 4.66674 19.7843C4.99696 19.8218 5.43973 19.8231 6.13125 19.8231H6.1905C6.85553 19.8231 6.97297 19.8111 7.0691 19.7771C7.09385 19.7683 7.11817 19.7583 7.14195 19.7472C7.23428 19.7039 7.32629 19.63 7.79964 19.1628L16.3441 10.7309Z" fill="#007AFF"/>
</g>
</svg>
