<svg width="25" height="24" viewBox="0 0 25 24" fill="none" xmlns="http://www.w3.org/2000/svg">
<g id="folder_24">
<path id="Vector" fill-rule="evenodd" clip-rule="evenodd" d="M9.37466 5.29487C9.23167 5.27261 9.07437 5.27011 8.56899 5.27011H8.14971C7.11601 5.27011 6.40651 5.27114 5.8612 5.32505C5.33019 5.37754 5.05248 5.47312 4.85353 5.60122C4.60385 5.76197 4.39148 5.97433 4.23073 6.22402C4.10264 6.42296 4.00705 6.70068 3.95456 7.23168C3.90065 7.777 3.89963 8.4865 3.89963 9.52019V13.6368C3.89963 15.0669 3.90154 16.049 4.0007 16.7865C4.09637 17.4981 4.26749 17.8459 4.50878 18.0872C4.75007 18.3285 5.09785 18.4996 5.80948 18.5953C6.54701 18.6944 7.52907 18.6964 8.9592 18.6964H15.041C16.4712 18.6964 17.4532 18.6944 18.1907 18.5953C18.9024 18.4996 19.2502 18.3285 19.4914 18.0872C19.7327 17.8459 19.9039 17.4981 19.9995 16.7865C20.0987 16.049 20.1006 15.0669 20.1006 13.6368V12.6627C20.1006 11.2934 20.0988 10.3531 20.0073 9.64419C19.9188 8.959 19.7601 8.62015 19.5383 8.38348C19.5076 8.35073 19.4758 8.31898 19.4431 8.28829C19.2064 8.06647 18.8676 7.90773 18.1824 7.81926C17.4734 7.72772 16.5332 7.72596 15.1638 7.72596H14.4582C14.4371 7.72596 14.4162 7.72596 14.3956 7.72597C13.9784 7.72608 13.6736 7.72616 13.3756 7.67978C12.7577 7.58357 12.1721 7.33938 11.6688 6.96803C11.4262 6.789 11.2118 6.57238 10.9183 6.27592C10.9038 6.26128 10.8891 6.24644 10.8742 6.23139C10.5185 5.87234 10.4061 5.76234 10.2896 5.67641C10.0198 5.47734 9.70594 5.34644 9.37466 5.29487ZM8.63163 3.4701C9.04881 3.46999 9.35363 3.46991 9.65156 3.51629C10.2695 3.6125 10.8551 3.85669 11.3584 4.22805C11.601 4.40707 11.8154 4.6237 12.1089 4.92017C12.1234 4.93481 12.1381 4.94964 12.153 4.96468C12.5087 5.32374 12.6211 5.43374 12.7376 5.51966C13.0074 5.71873 13.3213 5.84963 13.6525 5.9012C13.7955 5.92347 13.9528 5.92596 14.4582 5.92596L15.2254 5.92596C16.5181 5.92593 17.5751 5.92591 18.4129 6.03408C19.2876 6.14702 20.0511 6.39112 20.674 6.97497C20.7351 7.03223 20.7943 7.09145 20.8516 7.15255C21.4354 7.77547 21.6795 8.53894 21.7925 9.41369C21.9007 10.2514 21.9006 11.3085 21.9006 12.6012V13.7011C21.9006 15.0511 21.9007 16.1548 21.7835 17.0263C21.661 17.9376 21.3957 18.7285 20.7642 19.36C20.1328 19.9915 19.3418 20.2567 18.4306 20.3792C17.5591 20.4964 16.4553 20.4964 15.1054 20.4964H8.89483C7.54491 20.4964 6.44117 20.4964 5.56964 20.3792C4.6584 20.2567 3.86746 19.9915 3.23599 19.36C2.60452 18.7285 2.33926 17.9376 2.21675 17.0263C2.09957 16.1548 2.0996 15.0511 2.09963 13.7012L2.09963 9.47416C2.09961 8.49775 2.0996 7.69893 2.16329 7.05461C2.22939 6.38589 2.371 5.78744 2.71729 5.24959C3.01718 4.78382 3.41333 4.38766 3.87911 4.08778C4.41695 3.74149 5.0154 3.59988 5.68413 3.53378C6.32844 3.47009 7.12726 3.4701 8.10367 3.47011L8.56899 3.47011C8.59015 3.47011 8.61103 3.47011 8.63163 3.4701Z" fill="#007AFF"/>
</g>
</svg>
