<svg width="25" height="24" viewBox="0 0 25 24" fill="none" xmlns="http://www.w3.org/2000/svg">
<g id="gallery_24">
<path id="Vector" fill-rule="evenodd" clip-rule="evenodd" d="M13.3773 1.59824H16.1239C17.0295 1.59823 17.7629 1.59822 18.3577 1.64602C18.971 1.6953 19.5144 1.79969 20.0199 2.05227C20.854 2.46901 21.5302 3.14523 21.9469 3.97925C22.1995 4.48475 22.3039 5.02822 22.3532 5.64149C22.401 6.23631 22.401 6.96968 22.401 7.87529V17.0928C22.401 19.4706 20.4734 21.3982 18.0956 21.3982H10.9191C8.81002 21.3982 7.10023 19.6885 7.10023 17.5793V7.87529C7.10022 6.96968 7.10021 6.23631 7.14801 5.64149C7.19729 5.02822 7.30168 4.48475 7.55426 3.97925C7.971 3.14523 8.64722 2.46901 9.48125 2.05227C9.98674 1.79969 10.5302 1.6953 11.1435 1.64602C11.7383 1.59822 12.4717 1.59823 13.3773 1.59824ZM11.2877 3.44024C10.7837 3.48073 10.499 3.55591 10.2858 3.66245C9.80046 3.90496 9.40696 4.29847 9.16444 4.78381C9.0579 4.99704 8.98273 5.28171 8.94223 5.78568C8.90091 6.29988 8.90023 6.96078 8.90023 7.91293V15.448L9.13348 15.2211C9.18106 15.1748 9.22297 15.134 9.2629 15.0982C10.2516 14.2117 11.7492 14.2117 12.7379 15.0982C12.7778 15.134 12.8197 15.1748 12.8673 15.2211L12.8781 15.2315C12.9427 15.2945 12.9559 15.307 12.9647 15.3149C13.2696 15.5883 13.7315 15.5883 14.0364 15.3149C14.0452 15.307 14.0583 15.2945 14.123 15.2315L15.009 14.3696C15.3164 14.0704 15.5841 13.81 15.8226 13.6122C16.0753 13.4026 16.3516 13.2141 16.6909 13.103C17.2171 12.9308 17.7844 12.9308 18.3105 13.103C18.6499 13.2141 18.9262 13.4026 19.1789 13.6122C19.4174 13.81 19.685 14.0704 19.9925 14.3695L20.601 14.9615V7.91293C20.601 6.96078 20.6003 6.29988 20.559 5.78568C20.5185 5.28171 20.4433 4.99704 20.3367 4.78381C20.0942 4.29847 19.7007 3.90496 19.2154 3.66245C19.0022 3.55591 18.7175 3.48073 18.2135 3.44024C17.6993 3.39891 17.0384 3.39824 16.0863 3.39824H13.4149C12.4628 3.39824 11.8019 3.39891 11.2877 3.44024ZM20.5759 17.4485L18.7611 15.6828C18.423 15.3539 18.2067 15.1443 18.0298 14.9977C17.861 14.8577 17.7861 14.8253 17.7505 14.8137C17.5882 14.7606 17.4133 14.7606 17.251 14.8137C17.2154 14.8253 17.1405 14.8577 16.9717 14.9977C16.7948 15.1443 16.5785 15.3539 16.2404 15.6828L15.3675 16.5321C15.3199 16.5785 15.2779 16.6193 15.238 16.6551C14.2493 17.5415 12.7518 17.5415 11.763 16.6551C11.7231 16.6193 11.6812 16.5785 11.6337 16.5322L11.6229 16.5217C11.5582 16.4588 11.545 16.4462 11.5363 16.4384C11.2313 16.165 10.7695 16.165 10.4645 16.4384C10.4558 16.4462 10.4426 16.4588 10.3779 16.5217L8.93055 17.9299C9.0965 18.8778 9.92369 19.5982 10.9191 19.5982H18.0956C19.3585 19.5982 20.4032 18.6638 20.5759 17.4485ZM1.59993 6.45783C1.59993 4.57999 3.12222 3.0577 5.00007 3.0577C5.49712 3.0577 5.90007 3.46064 5.90007 3.9577C5.90007 4.45475 5.49712 4.8577 5.00007 4.8577C4.11633 4.8577 3.39993 5.5741 3.39993 6.45783V17.5116C3.39993 18.3953 4.11634 19.1118 5.00007 19.1118C5.49712 19.1118 5.90007 19.5147 5.90007 20.0118C5.90007 20.5088 5.49712 20.9118 5.00007 20.9118C3.12222 20.9118 1.59993 19.3895 1.59993 17.5116V6.45783Z" fill="#007AFF"/>
<ellipse id="Ellipse 34" cx="17.0008" cy="7.0007" rx="1.50052" ry="1.50067" fill="#007AFF"/>
</g>
</svg>
