<svg width="25" height="24" viewBox="0 0 25 24" fill="none" xmlns="http://www.w3.org/2000/svg">
<g id="heart_24">
<path id="Vector" fill-rule="evenodd" clip-rule="evenodd" d="M12.0001 4.2059C11.1385 3.42775 9.99389 2.80956 8.73973 2.5792C7.19231 2.29498 5.47873 2.60553 3.99303 3.91757C2.99554 4.79848 2.37953 6.17569 2.17583 7.65106C1.97015 9.1407 2.17038 10.8157 2.90292 12.3682C3.43565 13.4973 4.69409 14.9032 5.984 16.1829C7.30692 17.4954 8.77895 18.7856 9.85527 19.6967C11.098 20.7487 12.9022 20.7487 14.1449 19.6967C15.2212 18.7856 16.6933 17.4954 18.0162 16.183C19.3061 14.9033 20.5645 13.4973 21.0973 12.3683C21.8298 10.8157 22.03 9.14071 21.8243 7.65107C21.6206 6.1757 21.0046 4.79849 20.0071 3.91759C18.5214 2.60555 16.8079 2.29499 15.2604 2.57921C14.0063 2.80956 12.8617 3.42776 12.0001 4.2059ZM8.41456 4.34959C7.35506 4.15498 6.21558 4.35624 5.18453 5.26677C4.59537 5.78707 4.12147 6.7199 3.95891 7.89725C3.79833 9.06033 3.95547 10.3808 4.53081 11.6002C4.91055 12.405 5.94389 13.6076 7.25172 14.9051C8.52655 16.1699 9.95823 17.4255 11.0183 18.3228C11.5898 18.8066 12.4104 18.8066 12.9819 18.3228C14.0419 17.4255 15.4736 16.1699 16.7484 14.9051C18.0563 13.6076 19.0896 12.405 19.4694 11.6002C20.0447 10.3808 20.2018 9.06035 20.0413 7.89726C19.8787 6.71991 19.4048 5.78709 18.8156 5.26678C17.7846 4.35625 16.6451 4.15499 15.5856 4.3496C14.4955 4.54982 13.4913 5.17339 12.8485 5.9033C12.3991 6.4137 11.6011 6.4137 11.1517 5.9033C10.5089 5.17339 9.50469 4.54982 8.41456 4.34959Z" fill="#007AFF"/>
</g>
</svg>
