<svg width="25" height="24" viewBox="0 0 25 24" fill="none" xmlns="http://www.w3.org/2000/svg">
<g id="lock_24">
<path id="Vector" fill-rule="evenodd" clip-rule="evenodd" d="M11.7661 3.36458C9.80364 3.36458 8.21275 4.95547 8.21275 6.91794V8.42464H15.3195V6.91794C15.3195 4.95547 13.7286 3.36458 11.7661 3.36458ZM17.1195 8.42893V6.91794C17.1195 3.96136 14.7227 1.56458 11.7661 1.56458C8.80953 1.56458 6.41275 3.96136 6.41275 6.91794V8.43615C6.1007 8.45218 5.81867 8.48978 5.56049 8.57724C4.70934 8.86557 4.04103 9.53388 3.7527 10.385C3.59869 10.8397 3.59928 11.3682 3.59999 12.0045C3.60004 12.0483 3.60009 12.0925 3.60009 12.1373L3.60009 18.0723C3.60008 18.5985 3.60007 19.0468 3.63015 19.415C3.66176 19.8019 3.73103 20.1789 3.91471 20.5393C4.19145 21.0825 4.63303 21.5241 5.17616 21.8008C5.53665 21.9845 5.91358 22.0537 6.3005 22.0854C6.66868 22.1154 7.11704 22.1154 7.64317 22.1154H16.3578C16.884 22.1154 17.3323 22.1154 17.7005 22.0854C18.0874 22.0537 18.4643 21.9845 18.8248 21.8008C19.368 21.5241 19.8096 21.0825 20.0863 20.5393C20.27 20.1789 20.3392 19.8019 20.3709 19.415C20.4009 19.0468 20.4009 18.5985 20.4009 18.0723V12.4677C20.4009 11.9416 20.4009 11.4932 20.3709 11.125C20.3392 10.7381 20.27 10.3612 20.0863 10.0007C19.8096 9.45757 19.368 9.01599 18.8248 8.73925C18.4643 8.55557 18.0874 8.4863 17.7005 8.45469C17.525 8.44035 17.3312 8.43285 17.1195 8.42893ZM7.31275 10.2246C6.4708 10.2246 6.27217 10.2366 6.13801 10.2821C5.81763 10.3906 5.56607 10.6422 5.45754 10.9626C5.41209 11.0967 5.40009 11.2953 5.40009 12.1373V18.037C5.40009 18.6081 5.40079 18.9823 5.42417 19.2684C5.44669 19.544 5.48568 19.6577 5.51852 19.7222C5.62269 19.9266 5.7889 20.0928 5.99335 20.197C6.05779 20.2298 6.17147 20.2688 6.44707 20.2913C6.73318 20.3147 7.1074 20.3154 7.67853 20.3154H16.3225C16.8936 20.3154 17.2678 20.3147 17.5539 20.2913C17.8295 20.2688 17.9432 20.2298 18.0077 20.197C18.2121 20.0928 18.3783 19.9266 18.4825 19.7222C18.5153 19.6577 18.5543 19.544 18.5768 19.2684C18.6002 18.9823 18.6009 18.6081 18.6009 18.037V12.5031C18.6009 11.9319 18.6002 11.5577 18.5768 11.2716C18.5543 10.996 18.5153 10.8823 18.4825 10.8179C18.3783 10.6134 18.2121 10.4472 18.0077 10.3431C17.9432 10.3102 17.8295 10.2712 17.5539 10.2487C17.2678 10.2253 16.8936 10.2246 16.3225 10.2246H7.31275Z" fill="#007AFF"/>
<ellipse id="Ellipse 28" cx="12.0005" cy="15.2945" rx="1.50052" ry="1.48099" fill="#007AFF"/>
</g>
</svg>
