<svg width="25" height="24" viewBox="0 0 25 24" fill="none" xmlns="http://www.w3.org/2000/svg">
<g id="pin_24">
<path id="Vector" fill-rule="evenodd" clip-rule="evenodd" d="M14.9602 2.73277C15.5627 2.5564 16.203 2.5564 16.8055 2.73277C17.2606 2.86602 17.6389 3.11557 18.0049 3.41953C18.3552 3.71053 18.7509 4.10099 19.2243 4.56819L19.2792 4.62243C19.7643 5.10112 20.1693 5.50068 20.4709 5.85485C20.7856 6.22441 21.0446 6.60761 21.1826 7.07081C21.365 7.68276 21.365 8.33461 21.1826 8.94657C21.0446 9.40976 20.7856 9.79297 20.4709 10.1625C20.1692 10.5167 19.7643 10.9163 19.2792 11.395L18.1964 12.4635C17.9094 12.7467 17.8347 12.8239 17.7763 12.9025C17.6603 13.0587 17.5762 13.2361 17.5287 13.4248C17.5047 13.5197 17.4923 13.6264 17.4546 14.0279L17.4514 14.0619C17.3667 14.965 17.2988 15.6885 17.2085 16.247C17.1193 16.7981 16.991 17.3198 16.7105 17.7401C15.9144 18.933 14.4362 19.4713 13.0595 19.0697C12.5744 18.9282 12.1407 18.6112 11.718 18.2464C11.2897 17.8768 10.7724 17.3664 10.1268 16.7292L9.22703 15.8413L5.42198 19.5963C5.06819 19.9454 4.49835 19.9416 4.14922 19.5878C3.80008 19.234 3.80386 18.6642 4.15765 18.3151L7.94572 14.5769L7.15888 13.8004C6.50572 13.1558 5.98302 12.64 5.60425 12.2132C5.23112 11.7927 4.90548 11.3607 4.75732 10.8763C4.33245 9.48722 4.87065 7.98407 6.08062 7.18038C6.50257 6.9001 7.02841 6.77297 7.58364 6.68486C8.14727 6.59543 8.87856 6.52861 9.79238 6.44512L9.82626 6.44202C10.2186 6.40617 10.3229 6.39429 10.416 6.37143C10.6029 6.32549 10.779 6.24365 10.9346 6.13045C11.0121 6.0741 11.0885 6.00203 11.3689 5.72527L12.5415 4.56814C13.0149 4.10096 13.4105 3.71052 13.7608 3.41953C14.1268 3.11557 14.5051 2.86602 14.9602 2.73277ZM16.2997 4.46026C16.0275 4.38057 15.7382 4.38057 15.466 4.46026C15.3443 4.49588 15.1859 4.57582 14.911 4.80416C14.6271 5.03991 14.2863 5.3752 13.7785 5.87627L12.6332 7.00647C12.6202 7.01937 12.6073 7.03212 12.5945 7.04471C12.3706 7.26581 12.1941 7.44016 11.9935 7.58609C11.6491 7.83661 11.2592 8.01775 10.8456 8.1194C10.6047 8.17861 10.3576 8.2011 10.0442 8.22962C10.0264 8.23124 10.0083 8.23288 9.99005 8.23455C9.03462 8.32185 8.3632 8.38368 7.86574 8.46262C7.35294 8.54399 7.15654 8.62662 7.07654 8.67975C6.52981 9.04291 6.28662 9.72212 6.4786 10.3498C6.50669 10.4416 6.60601 10.6301 6.95062 11.0185C7.28493 11.3952 7.76451 11.8692 8.4474 12.5431L11.3668 15.424C12.0423 16.0906 12.5168 16.5582 12.8939 16.8836C13.282 17.2185 13.4704 17.3145 13.5636 17.3417C14.1857 17.5232 14.8536 17.2799 15.2133 16.7409C15.2671 16.6602 15.3497 16.4655 15.4316 15.9595C15.5111 15.4678 15.5738 14.8046 15.6625 13.8597C15.6642 13.841 15.666 13.8225 15.6677 13.8042C15.6976 13.4837 15.7212 13.231 15.7832 12.985C15.8883 12.5676 16.0746 12.1749 16.3312 11.8293C16.4824 11.6257 16.6632 11.4475 16.8924 11.2215C16.9055 11.2086 16.9187 11.1955 16.9321 11.1823L17.9872 10.1411C18.5071 9.628 18.8556 9.28306 19.1005 8.99542C19.3382 8.71643 19.4209 8.55553 19.4576 8.43248C19.54 8.15596 19.54 7.86142 19.4576 7.5849C19.4209 7.46185 19.3382 7.30095 19.1005 7.02196C18.8556 6.73432 18.5071 6.38937 17.9872 5.87627C17.4794 5.3752 17.1386 5.03991 16.8548 4.80416C16.5799 4.57582 16.4214 4.49588 16.2997 4.46026Z" fill="#007AFF"/>
</g>
</svg>
