<svg width="25" height="24" viewBox="0 0 25 24" fill="none" xmlns="http://www.w3.org/2000/svg">
<g id="qr_24">
<path id="Vector" fill-rule="evenodd" clip-rule="evenodd" d="M6.96034 2.48363H7.0394C7.67334 2.48361 8.20802 2.4836 8.64435 2.52262C9.10164 2.56352 9.53802 2.65279 9.94554 2.88497C10.4076 3.14823 10.7928 3.52774 11.0612 3.98653C11.2988 4.39261 11.3901 4.82791 11.4318 5.2822C11.4715 5.7144 11.4715 6.24343 11.4715 6.86789V6.94855C11.4715 7.57301 11.4715 8.10205 11.4318 8.53424C11.3901 8.98853 11.2988 9.42383 11.0612 9.82992C10.7928 10.2887 10.4076 10.6682 9.94554 10.9315C9.53802 11.1637 9.10164 11.2529 8.64435 11.2938C8.20802 11.3328 7.67334 11.3328 7.03941 11.3328H6.96033C6.32639 11.3328 5.79171 11.3328 5.35539 11.2938C4.89809 11.2529 4.46172 11.1637 4.0542 10.9315C3.59213 10.6682 3.20694 10.2887 2.93853 9.82992C2.70095 9.42383 2.60963 8.98853 2.56791 8.53424C2.52821 8.10204 2.52823 7.573 2.52824 6.94852V6.86793C2.52823 6.24345 2.52821 5.7144 2.56791 5.2822C2.60963 4.82791 2.70095 4.39261 2.93853 3.98653C3.20694 3.52774 3.59213 3.14823 4.0542 2.88497C4.46172 2.65279 4.89809 2.56352 5.35539 2.52262C5.79172 2.4836 6.3264 2.48361 6.96034 2.48363ZM5.51574 4.31547C5.1811 4.3454 5.03503 4.3978 4.94527 4.44894C4.75579 4.55689 4.59993 4.7113 4.49217 4.89549C4.44265 4.98013 4.39041 5.11961 4.36036 5.44683C4.32913 5.78688 4.32825 6.23261 4.32825 6.90822C4.32825 7.58383 4.32913 8.02957 4.36036 8.36961C4.39041 8.69683 4.44265 8.83631 4.49217 8.92095C4.59993 9.10514 4.75579 9.25955 4.94527 9.36751C5.03503 9.41865 5.1811 9.47105 5.51574 9.50098C5.86231 9.53197 6.3159 9.53281 6.99987 9.53281C7.68383 9.53281 8.13742 9.53197 8.48399 9.50098C8.81863 9.47105 8.96471 9.41865 9.05447 9.36751C9.24395 9.25955 9.39981 9.10514 9.50757 8.92095C9.55709 8.83631 9.60932 8.69683 9.63937 8.36961C9.6706 8.02957 9.67149 7.58383 9.67149 6.90822C9.67149 6.23261 9.6706 5.78688 9.63937 5.44683C9.60932 5.11961 9.55709 4.98013 9.50757 4.89549C9.39981 4.7113 9.24395 4.55689 9.05447 4.44894C8.96471 4.3978 8.81863 4.3454 8.48399 4.31547C8.13742 4.28447 7.68383 4.28363 6.99987 4.28363C6.3159 4.28363 5.86231 4.28447 5.51574 4.31547ZM16.9609 2.48363H17.0399C17.6739 2.48361 18.2086 2.4836 18.6449 2.52262C19.1022 2.56352 19.5386 2.65279 19.9461 2.88497C20.4081 3.14823 20.7933 3.52774 21.0617 3.98653C21.2993 4.39261 21.3906 4.82791 21.4324 5.2822C21.4721 5.7144 21.472 6.24345 21.472 6.86794V6.94851C21.472 7.57299 21.4721 8.10204 21.4324 8.53424C21.3906 8.98853 21.2993 9.42383 21.0617 9.82992C20.7933 10.2887 20.4081 10.6682 19.9461 10.9315C19.5386 11.1637 19.1022 11.2529 18.6449 11.2938C18.2086 11.3328 17.6739 11.3328 17.04 11.3328H16.9609C16.3269 11.3328 15.7923 11.3328 15.3559 11.2938C14.8986 11.2529 14.4623 11.1637 14.0547 10.9315C13.5927 10.6682 13.2075 10.2887 12.9391 9.82992C12.7015 9.42383 12.6102 8.98853 12.5684 8.53424C12.5288 8.10204 12.5288 7.57299 12.5288 6.94851V6.86794C12.5288 6.24345 12.5288 5.71441 12.5684 5.2822C12.6102 4.82791 12.7015 4.39261 12.9391 3.98653C13.2075 3.52774 13.5927 3.14823 14.0547 2.88497C14.4623 2.65279 14.8986 2.56352 15.3559 2.52262C15.7923 2.4836 16.3269 2.48361 16.9609 2.48363ZM15.5163 4.31547C15.1816 4.3454 15.0356 4.3978 14.9458 4.44894C14.7563 4.55689 14.6005 4.7113 14.4927 4.89549C14.4432 4.98013 14.391 5.11961 14.3609 5.44683C14.3297 5.78688 14.3288 6.23261 14.3288 6.90822C14.3288 7.58383 14.3297 8.02957 14.3609 8.36961C14.391 8.69683 14.4432 8.83631 14.4927 8.92095C14.6005 9.10514 14.7563 9.25955 14.9458 9.36751C15.0356 9.41865 15.1816 9.47105 15.5163 9.50098C15.8629 9.53197 16.3164 9.53281 17.0004 9.53281C17.6844 9.53281 18.138 9.53197 18.4845 9.50098C18.8192 9.47105 18.9653 9.41865 19.055 9.36751C19.2445 9.25955 19.4003 9.10514 19.5081 8.92095C19.5576 8.83631 19.6099 8.69683 19.6399 8.36961C19.6711 8.02957 19.672 7.58383 19.672 6.90822C19.672 6.23261 19.6711 5.78688 19.6399 5.44683C19.6099 5.11961 19.5576 4.98013 19.5081 4.89549C19.4004 4.7113 19.2445 4.55689 19.055 4.44894C18.9653 4.3978 18.8192 4.3454 18.4845 4.31547C18.138 4.28447 17.6844 4.28363 17.0004 4.28363C16.3164 4.28363 15.8629 4.28447 15.5163 4.31547ZM6.96033 12.3525H7.03941C7.67334 12.3525 8.20802 12.3525 8.64435 12.3915C9.10164 12.4324 9.53802 12.5216 9.94554 12.7538C10.4076 13.0171 10.7928 13.3966 11.0612 13.8554C11.2988 14.2615 11.3901 14.6968 11.4318 15.1511C11.4715 15.5833 11.4715 16.1123 11.4715 16.7368V16.8174C11.4715 17.4419 11.4715 17.9709 11.4318 18.4031C11.3901 18.8574 11.2988 19.2927 11.0612 19.6988C10.7928 20.1576 10.4076 20.5371 9.94554 20.8003C9.53802 21.0325 9.10164 21.1218 8.64435 21.1627C8.20801 21.2017 7.67332 21.2017 7.03937 21.2017H6.96037C6.32642 21.2017 5.79172 21.2017 5.35539 21.1627C4.89809 21.1218 4.46172 21.0325 4.0542 20.8003C3.59213 20.5371 3.20694 20.1576 2.93853 19.6988C2.70095 19.2927 2.60963 18.8574 2.56791 18.4031C2.52821 17.9709 2.52823 17.4419 2.52824 16.8174V16.7368C2.52823 16.1123 2.52821 15.5833 2.56791 15.1511C2.60963 14.6968 2.70095 14.2615 2.93853 13.8554C3.20694 13.3966 3.59213 13.0171 4.0542 12.7538C4.46172 12.5216 4.89809 12.4324 5.35539 12.3915C5.79171 12.3525 6.32639 12.3525 6.96033 12.3525ZM5.51574 14.1843C5.1811 14.2143 5.03503 14.2667 4.94527 14.3178C4.75579 14.4257 4.59992 14.5802 4.49217 14.7643C4.44265 14.849 4.39041 14.9885 4.36036 15.3157C4.32913 15.6557 4.32825 16.1015 4.32825 16.7771C4.32825 17.4527 4.32913 17.8984 4.36036 18.2385C4.39041 18.5657 4.44265 18.7052 4.49217 18.7898C4.59992 18.974 4.75579 19.1284 4.94527 19.2364C5.03503 19.2875 5.1811 19.3399 5.51574 19.3698C5.86231 19.4008 6.3159 19.4017 6.99987 19.4017C7.68383 19.4017 8.13742 19.4008 8.48399 19.3698C8.81863 19.3399 8.96471 19.2875 9.05447 19.2364C9.24395 19.1284 9.39981 18.974 9.50757 18.7898C9.55709 18.7052 9.60932 18.5657 9.63937 18.2385C9.6706 17.8984 9.67149 17.4527 9.67149 16.7771C9.67149 16.1015 9.6706 15.6557 9.63937 15.3157C9.60932 14.9885 9.55709 14.849 9.50757 14.7643C9.39981 14.5802 9.24395 14.4257 9.05447 14.3178C8.96471 14.2667 8.81863 14.2143 8.48399 14.1843C8.13742 14.1533 7.68383 14.1525 6.99987 14.1525C6.3159 14.1525 5.86231 14.1533 5.51574 14.1843Z" fill="#007AFF"/>
<g id="Vector_2">
<path d="M14.7429 13.5283C15.311 13.5283 15.7715 13.9828 15.7715 14.5434C15.7715 15.104 15.311 15.5585 14.7429 15.5585C14.1748 15.5585 13.7142 15.104 13.7142 14.5434C13.7142 13.9828 14.1748 13.5283 14.7429 13.5283Z" fill="#007AFF"/>
<path d="M17.143 15.8969C17.7111 15.8969 18.1716 16.3513 18.1716 16.912C18.1716 17.4726 17.7111 17.927 17.143 17.927C16.5749 17.927 16.1144 17.4726 16.1144 16.912C16.1144 16.3513 16.5749 15.8969 17.143 15.8969Z" fill="#007AFF"/>
<path d="M19.5431 13.5283C20.1112 13.5283 20.5718 13.9828 20.5718 14.5434C20.5718 15.104 20.1112 15.5585 19.5431 15.5585C18.975 15.5585 18.5145 15.104 18.5145 14.5434C18.5145 13.9828 18.975 13.5283 19.5431 13.5283Z" fill="#007AFF"/>
<path d="M14.7429 18.2654C15.311 18.2654 15.7715 18.7199 15.7715 19.2805C15.7715 19.8411 15.311 20.2956 14.7429 20.2956C14.1748 20.2956 13.7142 19.8411 13.7142 19.2805C13.7142 18.7199 14.1748 18.2654 14.7429 18.2654Z" fill="#007AFF"/>
<path d="M19.5431 18.2654C20.1112 18.2654 20.5718 18.7199 20.5718 19.2805C20.5718 19.8411 20.1112 20.2956 19.5431 20.2956C18.975 20.2956 18.5145 19.8411 18.5145 19.2805C18.5145 18.7199 18.975 18.2654 19.5431 18.2654Z" fill="#007AFF"/>
</g>
</g>
</svg>
