<svg width="15" height="16" viewBox="0 0 15 16" fill="none" xmlns="http://www.w3.org/2000/svg">
<path d="M3.49563 16C3.08188 16 2.72917 15.8527 2.4375 15.5581C2.14583 15.2635 2 14.9094 2 14.4956C2 14.0819 2.14729 13.7292 2.44188 13.4375C2.73646 13.1458 3.09063 13 3.50438 13C3.91813 13 4.27083 13.1473 4.5625 13.4419C4.85417 13.7365 5 14.0906 5 14.5044C5 14.9181 4.85271 15.2708 4.55813 15.5625C4.26354 15.8542 3.90938 16 3.49563 16ZM12.4956 16C12.0819 16 11.7292 15.8527 11.4375 15.5581C11.1458 15.2635 11 14.9094 11 14.4956C11 14.0819 11.1473 13.7292 11.4419 13.4375C11.7365 13.1458 12.0906 13 12.5044 13C12.9181 13 13.2708 13.1473 13.5625 13.4419C13.8542 13.7365 14 14.0906 14 14.5044C14 14.9181 13.8527 15.2708 13.5581 15.5625C13.2635 15.8542 12.9094 16 12.4956 16ZM2.625 2H14.5C14.6944 2 14.8368 2.07639 14.9271 2.22917C15.0174 2.38194 15.0278 2.54167 14.9583 2.70833L12.6381 8.08042C12.5183 8.36014 12.3368 8.58333 12.0938 8.75C11.8507 8.91667 11.5764 9 11.2708 9H4.60417L3.72917 10.5H13.25C13.4625 10.5 13.6406 10.5715 13.7844 10.7144C13.9281 10.8573 14 11.0344 14 11.2456C14 11.4569 13.9281 11.6354 13.7844 11.7812C13.6406 11.9271 13.4625 12 13.25 12H3.75C3.15278 12 2.71181 11.749 2.42708 11.2469C2.14236 10.7447 2.14583 10.2457 2.4375 9.75L3.52083 7.875L0.791667 1.5H-0.25C-0.4625 1.5 -0.640625 1.42854 -0.784375 1.28563C-0.928125 1.14271 -1 0.965625 -1 0.754375C-1 0.543125 -0.928125 0.364583 -0.784375 0.21875C-0.640625 0.0729167 -0.4625 0 -0.25 0H1.27083C1.42361 0 1.55903 0.0416667 1.67708 0.125C1.79514 0.208333 1.88889 0.319444 1.95833 0.458333L2.625 2Z" fill="#278FFF"/>
</svg>
